<svg xmlns="http://www.w3.org/2000/svg" viewBox="0 0 400 90" fill="none">
  <defs>
    <linearGradient id="chipGrad" x1="0%" y1="0%" x2="100%" y2="100%">
      <stop offset="0%" stop-color="#06b6d4"/>
      <stop offset="100%" stop-color="#0891b2"/>
    </linearGradient>
    <filter id="chipBlur" x="-50%" y="-50%" width="200%" height="200%">
      <feGaussianBlur stdDeviation="8"/>
    </filter>
  </defs>

  <!-- Dark background -->
  <rect width="400" height="90" fill="#0d1117"/>

  <g transform="translate(9, 9)">
    <rect x="3" y="3" width="66" height="66" rx="14" fill="#06b6d4" opacity="0.7" filter="url(#chipBlur)"/>
    <rect width="72" height="72" rx="16" fill="#0d1117" stroke="#30363d" stroke-width="1.5"/>
    <g transform="translate(36, 36)">
      <rect x="-16" y="-16" width="32" height="32" rx="4" fill="#1e293b" stroke="url(#chipGrad)" stroke-width="3"/>
      <rect x="-10" y="-10" width="20" height="20" rx="3" fill="url(#chipGrad)" opacity="0.5"/>
      <line x1="-8" y1="-16" x2="-8" y2="-24" stroke="#06b6d4" stroke-width="3" stroke-linecap="round" stroke-dasharray="4 4" stroke-dashoffset="2"/>
      <line x1="0" y1="-16" x2="0" y2="-24" stroke="#06b6d4" stroke-width="3" stroke-linecap="round" stroke-dasharray="4 4" stroke-dashoffset="4"/>
      <line x1="8" y1="-16" x2="8" y2="-24" stroke="#06b6d4" stroke-width="3" stroke-linecap="round" stroke-dasharray="4 4" stroke-dashoffset="6"/>
      <line x1="-8" y1="16" x2="-8" y2="24" stroke="#06b6d4" stroke-width="3" stroke-linecap="round" stroke-dasharray="4 4" stroke-dashoffset="3"/>
      <line x1="0" y1="16" x2="0" y2="24" stroke="#06b6d4" stroke-width="3" stroke-linecap="round" stroke-dasharray="4 4" stroke-dashoffset="5"/>
      <line x1="8" y1="16" x2="8" y2="24" stroke="#06b6d4" stroke-width="3" stroke-linecap="round" stroke-dasharray="4 4" stroke-dashoffset="7"/>
      <line x1="-16" y1="-8" x2="-24" y2="-8" stroke="#06b6d4" stroke-width="3" stroke-linecap="round" stroke-dasharray="4 4" stroke-dashoffset="2"/>
      <line x1="-16" y1="8" x2="-24" y2="8" stroke="#06b6d4" stroke-width="3" stroke-linecap="round" stroke-dasharray="4 4" stroke-dashoffset="4"/>
      <line x1="16" y1="-8" x2="24" y2="-8" stroke="#06b6d4" stroke-width="3" stroke-linecap="round" stroke-dasharray="4 4" stroke-dashoffset="3"/>
      <line x1="16" y1="8" x2="24" y2="8" stroke="#06b6d4" stroke-width="3" stroke-linecap="round" stroke-dasharray="4 4" stroke-dashoffset="5"/>
    </g>
  </g>

  <text x="100" y="58" font-family="system-ui, -apple-system, sans-serif" font-size="38" font-weight="600" fill="#e6edf3">Smart</text>
  <text x="202" y="58" font-family="system-ui, -apple-system, sans-serif" font-size="38" font-weight="700" fill="#3fb950">Bolig</text>
  <text x="310" y="58" font-family="system-ui, -apple-system, sans-serif" font-size="22" font-weight="400" fill="#6e7681">.net</text>
</svg>
