<svg xmlns="http://www.w3.org/2000/svg" viewBox="0 0 1200 630" role="img" aria-labelledby="title desc">
  <title id="title">SmartBolig.net AI News</title>
  <desc id="desc">Daily source-backed brief for AI CLIs, coding agents, API pricing, and security.</desc>
  <defs>
    <linearGradient id="bg" x1="0" y1="0" x2="1200" y2="630" gradientUnits="userSpaceOnUse">
      <stop offset="0" stop-color="#0b1210"/>
      <stop offset="0.58" stop-color="#12201c"/>
      <stop offset="1" stop-color="#102525"/>
    </linearGradient>
    <linearGradient id="accent" x1="196" y1="138" x2="1004" y2="492" gradientUnits="userSpaceOnUse">
      <stop offset="0" stop-color="#34d399"/>
      <stop offset="0.54" stop-color="#22d3ee"/>
      <stop offset="1" stop-color="#fbbf24"/>
    </linearGradient>
    <filter id="softGlow" x="-30%" y="-30%" width="160%" height="160%">
      <feGaussianBlur stdDeviation="24"/>
    </filter>
  </defs>

  <rect width="1200" height="630" fill="url(#bg)"/>
  <rect x="70" y="70" width="1060" height="490" rx="34" fill="#111916" stroke="#2f5f4e" stroke-width="2"/>

  <g opacity="0.35" filter="url(#softGlow)">
    <circle cx="226" cy="166" r="80" fill="#34d399"/>
    <circle cx="1010" cy="462" r="96" fill="#22d3ee"/>
  </g>

  <g fill="none" stroke="url(#accent)" stroke-width="4" opacity="0.72">
    <path d="M197 430C306 300 397 355 492 250S685 99 811 202s146 9 202-56"/>
    <path d="M197 471c120-73 226-69 317-20 100 54 180 42 252-34 80-84 157-95 250-32"/>
  </g>

  <g transform="translate(96 100)">
    <rect x="0" y="0" width="168" height="168" rx="28" fill="#0e1513" stroke="#3ddc97" stroke-width="3"/>
    <g transform="translate(84 84)">
      <rect x="-40" y="-40" width="80" height="80" rx="12" fill="#13251f" stroke="#34d399" stroke-width="8"/>
      <rect x="-20" y="-20" width="40" height="40" rx="8" fill="#22d3ee" opacity="0.75"/>
      <g stroke="#34d399" stroke-linecap="round" stroke-width="8">
        <path d="M-64-24h22M-64 0h22M-64 24h22M42-24h22M42 0h22M42 24h22"/>
        <path d="M-24-64v22M0-64v22M24-64v22M-24 42v22M0 42v22M24 42v22"/>
      </g>
    </g>
  </g>

  <text x="298" y="154" fill="#dff7ea" font-family="Inter, ui-sans-serif, system-ui, -apple-system, BlinkMacSystemFont, Segoe UI, sans-serif" font-size="34" font-weight="700" letter-spacing="0">
    SmartBolig.net
  </text>
  <text x="298" y="248" fill="#ffffff" font-family="Inter, ui-sans-serif, system-ui, -apple-system, BlinkMacSystemFont, Segoe UI, sans-serif" font-size="86" font-weight="800" letter-spacing="0">
    AI News
  </text>
  <text x="302" y="312" fill="#b6c8bf" font-family="Inter, ui-sans-serif, system-ui, -apple-system, BlinkMacSystemFont, Segoe UI, sans-serif" font-size="34" font-weight="500" letter-spacing="0">
    Codex, Claude Code, Gemini CLI
  </text>

  <g transform="translate(302 380)" font-family="Inter, ui-sans-serif, system-ui, -apple-system, BlinkMacSystemFont, Segoe UI, sans-serif" font-size="25" font-weight="650" letter-spacing="0">
    <rect x="0" y="0" width="204" height="54" rx="8" fill="#1c3028" stroke="#34d399" stroke-width="1.5"/>
    <text x="24" y="35" fill="#dff7ea">Official sources</text>
    <rect x="224" y="0" width="176" height="54" rx="8" fill="#142c31" stroke="#22d3ee" stroke-width="1.5"/>
    <text x="248" y="35" fill="#dff9ff">API pricing</text>
    <rect x="420" y="0" width="190" height="54" rx="8" fill="#322a16" stroke="#fbbf24" stroke-width="1.5"/>
    <text x="444" y="35" fill="#fff3cd">Agent safety</text>
  </g>

  <text x="98" y="538" fill="#7f948b" font-family="Inter, ui-sans-serif, system-ui, -apple-system, BlinkMacSystemFont, Segoe UI, sans-serif" font-size="24" font-weight="500" letter-spacing="0">
    Daily source-backed brief
  </text>
</svg>
