<svg xmlns="http://www.w3.org/2000/svg" viewBox="0 0 64 64" width="64" height="64">
  <defs>
    <linearGradient id="chipGradFav" x1="0%" y1="0%" x2="100%" y2="100%">
      <stop offset="0%" stop-color="#06b6d4"/>
      <stop offset="100%" stop-color="#0891b2"/>
    </linearGradient>
  </defs>

  <!-- Background -->
  <rect width="64" height="64" rx="16" fill="#0d1117"/>

  <!-- CPU/Chip icon -->
  <g transform="translate(32, 32)">
    <!-- Main chip body -->
    <rect x="-14" y="-14" width="28" height="28" rx="4" fill="#1e293b" stroke="url(#chipGradFav)" stroke-width="3"/>

    <!-- Inner core -->
    <rect x="-8" y="-8" width="16" height="16" rx="2" fill="url(#chipGradFav)" opacity="0.5"/>

    <!-- Pins - top -->
    <line x1="-7" y1="-14" x2="-7" y2="-22" stroke="#06b6d4" stroke-width="3" stroke-linecap="round"/>
    <line x1="0" y1="-14" x2="0" y2="-22" stroke="#06b6d4" stroke-width="3" stroke-linecap="round"/>
    <line x1="7" y1="-14" x2="7" y2="-22" stroke="#06b6d4" stroke-width="3" stroke-linecap="round"/>

    <!-- Pins - bottom -->
    <line x1="-7" y1="14" x2="-7" y2="22" stroke="#06b6d4" stroke-width="3" stroke-linecap="round"/>
    <line x1="0" y1="14" x2="0" y2="22" stroke="#06b6d4" stroke-width="3" stroke-linecap="round"/>
    <line x1="7" y1="14" x2="7" y2="22" stroke="#06b6d4" stroke-width="3" stroke-linecap="round"/>

    <!-- Pins - left -->
    <line x1="-14" y1="-7" x2="-22" y2="-7" stroke="#06b6d4" stroke-width="3" stroke-linecap="round"/>
    <line x1="-14" y1="7" x2="-22" y2="7" stroke="#06b6d4" stroke-width="3" stroke-linecap="round"/>

    <!-- Pins - right -->
    <line x1="14" y1="-7" x2="22" y2="-7" stroke="#06b6d4" stroke-width="3" stroke-linecap="round"/>
    <line x1="14" y1="7" x2="22" y2="7" stroke="#06b6d4" stroke-width="3" stroke-linecap="round"/>
  </g>
</svg>
