<svg xmlns="http://www.w3.org/2000/svg" viewBox="0 0 512 512" fill="none">
  <defs>
    <linearGradient id="chipGrad" x1="0%" y1="0%" x2="100%" y2="100%">
      <stop offset="0%" stop-color="#06b6d4"/>
      <stop offset="100%" stop-color="#0891b2"/>
    </linearGradient>
    <filter id="chipBlur" x="-50%" y="-50%" width="200%" height="200%">
      <feGaussianBlur stdDeviation="20"/>
    </filter>
    <clipPath id="circleClip">
      <circle cx="256" cy="256" r="256"/>
    </clipPath>
  </defs>

  <!-- Clip everything to circle -->
  <g clip-path="url(#circleClip)">
    <!-- Dark background -->
    <rect width="512" height="512" fill="#0d1117"/>

    <g transform="translate(56, 56)">
      <!-- Glow -->
      <rect x="16" y="16" width="368" height="368" rx="80" fill="#06b6d4" opacity="0.5" filter="url(#chipBlur)"/>

      <!-- Background -->
      <rect width="400" height="400" rx="88" fill="#0d1117" stroke="#30363d" stroke-width="8"/>

      <g transform="translate(200, 200)">
        <rect x="-88" y="-88" width="176" height="176" rx="22" fill="#1e293b" stroke="url(#chipGrad)" stroke-width="16"/>
        <rect x="-56" y="-56" width="112" height="112" rx="16" fill="url(#chipGrad)" opacity="0.5"/>

        <!-- Pins -->
        <line x1="-44" y1="-88" x2="-44" y2="-132" stroke="#06b6d4" stroke-width="16" stroke-linecap="round"/>
        <line x1="0" y1="-88" x2="0" y2="-132" stroke="#06b6d4" stroke-width="16" stroke-linecap="round"/>
        <line x1="44" y1="-88" x2="44" y2="-132" stroke="#06b6d4" stroke-width="16" stroke-linecap="round"/>

        <line x1="-44" y1="88" x2="-44" y2="132" stroke="#06b6d4" stroke-width="16" stroke-linecap="round"/>
        <line x1="0" y1="88" x2="0" y2="132" stroke="#06b6d4" stroke-width="16" stroke-linecap="round"/>
        <line x1="44" y1="88" x2="44" y2="132" stroke="#06b6d4" stroke-width="16" stroke-linecap="round"/>

        <line x1="-88" y1="-44" x2="-132" y2="-44" stroke="#06b6d4" stroke-width="16" stroke-linecap="round"/>
        <line x1="-88" y1="44" x2="-132" y2="44" stroke="#06b6d4" stroke-width="16" stroke-linecap="round"/>

        <line x1="88" y1="-44" x2="132" y2="-44" stroke="#06b6d4" stroke-width="16" stroke-linecap="round"/>
        <line x1="88" y1="44" x2="132" y2="44" stroke="#06b6d4" stroke-width="16" stroke-linecap="round"/>
      </g>
    </g>
  </g>
</svg>
