<svg xmlns="http://www.w3.org/2000/svg" viewBox="0 0 200 50" fill="none">
  <defs>
    <linearGradient id="houseGrad" x1="0%" y1="0%" x2="100%" y2="100%">
      <stop offset="0%" style="stop-color:#2ea043"/>
      <stop offset="100%" style="stop-color:#238636"/>
    </linearGradient>
    <linearGradient id="circuitGrad" x1="0%" y1="0%" x2="100%" y2="0%">
      <stop offset="0%" style="stop-color:#0969da"/>
      <stop offset="100%" style="stop-color:#2ea043"/>
    </linearGradient>
  </defs>
  
  <g transform="translate(5, 5)">
    <path d="M20 18 L20 38 L40 38 L40 18" fill="#f6f8fa" stroke="url(#houseGrad)" stroke-width="2.5"/>
    <path d="M10 20 L30 5 L50 20" fill="none" stroke="url(#houseGrad)" stroke-width="3" stroke-linecap="round" stroke-linejoin="round"/>
    <rect x="27" y="26" width="6" height="12" rx="1" fill="url(#houseGrad)"/>
    <rect x="22" y="22" width="4" height="4" rx="0.5" fill="url(#circuitGrad)"/>
    <rect x="34" y="22" width="4" height="4" rx="0.5" fill="url(#circuitGrad)"/>
    <g transform="translate(26, 8)">
      <path d="M4 6 Q4 4, 6 4" fill="none" stroke="#0969da" stroke-width="1.5" stroke-linecap="round"/>
      <path d="M2 4 Q2 1, 6 1" fill="none" stroke="#0969da" stroke-width="1.5" stroke-linecap="round"/>
      <circle cx="6" cy="6" r="1.5" fill="#0969da"/>
    </g>
    <circle cx="15" cy="30" r="2" fill="#0969da"/>
    <circle cx="45" cy="30" r="2" fill="#0969da"/>
    <path d="M15 30 L15 35 L18 35" fill="none" stroke="#0969da" stroke-width="1.5" stroke-linecap="round"/>
    <path d="M45 30 L45 35 L42 35" fill="none" stroke="#0969da" stroke-width="1.5" stroke-linecap="round"/>
  </g>
  
  <text x="60" y="32" font-family="system-ui, -apple-system, BlinkMacSystemFont, 'Segoe UI', Roboto, sans-serif" font-size="22" font-weight="700" fill="#24292f">Smart</text>
  <text x="116" y="32" font-family="system-ui, -apple-system, BlinkMacSystemFont, 'Segoe UI', Roboto, sans-serif" font-size="22" font-weight="700" fill="#238636">Bolig</text>
  <text x="168" y="32" font-family="system-ui, -apple-system, BlinkMacSystemFont, 'Segoe UI', Roboto, sans-serif" font-size="14" font-weight="400" fill="#57606a">.net</text>
</svg>
